<svg width="22" height="22" viewBox="0 0 22 22" fill="none" xmlns="http://www.w3.org/2000/svg">
<path d="M6.59962 4.74633C6.68995 4.65694 6.76078 4.5498 6.80765 4.43167C6.85451 4.31354 6.87639 4.18699 6.87191 4.05998C6.86743 3.93298 6.83669 3.80828 6.78161 3.69374C6.72654 3.57921 6.64833 3.47733 6.55192 3.39453C6.06676 2.98047 5.45038 2.75207 4.81255 2.75L4.67204 2.75387H4.65142C3.19692 2.84238 2.06255 4.10566 2.06556 5.62891C2.06556 6.44531 2.40931 6.87758 2.68087 7.22348C2.75707 7.32018 2.8526 7.39993 2.96136 7.45764C3.07012 7.51535 3.18971 7.54974 3.31251 7.55863C3.32368 7.55863 3.34259 7.56078 3.39845 7.56078C3.50891 7.56062 3.61819 7.53811 3.71972 7.49462C3.82126 7.45113 3.91294 7.38754 3.98927 7.3077L6.59962 4.74633Z" fill="white"/>
<path d="M17.3503 2.75472L17.2098 2.75043H17.1874C16.549 2.75209 15.9319 2.98052 15.4463 3.39496C15.35 3.47776 15.272 3.57959 15.217 3.69404C15.162 3.80849 15.1313 3.93309 15.1268 4.05999C15.1223 4.18689 15.1442 4.31334 15.1909 4.43139C15.2377 4.54944 15.3084 4.65652 15.3986 4.7459L18.0098 7.30899C18.0863 7.38912 18.1783 7.45291 18.2801 7.49648C18.382 7.54006 18.4916 7.56252 18.6024 7.5625C18.6574 7.5625 18.6763 7.5625 18.6883 7.56036C18.811 7.55141 18.9305 7.51698 19.0392 7.45928C19.1479 7.40157 19.2434 7.32185 19.3195 7.2252C19.5928 6.8793 19.9331 6.44832 19.9348 5.63063C19.9374 4.10566 18.803 2.84238 17.3503 2.75472Z" fill="white"/>
<path d="M11.003 4.125C6.83501 4.125 3.44048 7.51738 3.44048 11.6875C3.43901 13.4556 4.05978 15.1678 5.19404 16.5241L3.64201 18.0765C3.57665 18.14 3.52456 18.2159 3.48879 18.2997C3.45301 18.3835 3.43426 18.4736 3.43361 18.5647C3.43297 18.6559 3.45044 18.7462 3.48503 18.8305C3.51961 18.9148 3.57061 18.9914 3.63507 19.0558C3.69952 19.1203 3.77614 19.1712 3.86046 19.2058C3.94479 19.2403 4.03514 19.2578 4.12627 19.2571C4.2174 19.2564 4.30748 19.2376 4.39127 19.2018C4.47507 19.166 4.55091 19.1139 4.61439 19.0485L6.16642 17.4964C7.52345 18.6294 9.23516 19.25 11.003 19.25C12.7708 19.25 14.4825 18.6294 15.8395 17.4964L17.392 19.0485C17.4555 19.1139 17.5313 19.166 17.6151 19.2018C17.6989 19.2376 17.789 19.2564 17.8801 19.2571C17.9713 19.2578 18.0616 19.2403 18.1459 19.2058C18.2303 19.1712 18.3069 19.1203 18.3713 19.0558C18.4358 18.9914 18.4868 18.9148 18.5214 18.8305C18.556 18.7462 18.5734 18.6559 18.5728 18.5647C18.5721 18.4736 18.5534 18.3835 18.5176 18.2997C18.4818 18.2159 18.4297 18.14 18.3644 18.0765L16.8119 16.5241C17.9464 15.1679 18.5672 13.4556 18.5655 11.6875C18.5655 7.51953 15.1731 4.125 11.003 4.125ZM11.6905 11.6875C11.6905 11.8698 11.618 12.0447 11.4891 12.1736C11.3602 12.3026 11.1853 12.375 11.003 12.375H7.56548C7.38315 12.375 7.20828 12.3026 7.07935 12.1736C6.95041 12.0447 6.87798 11.8698 6.87798 11.6875C6.87798 11.5052 6.95041 11.3303 7.07935 11.2014C7.20828 11.0724 7.38315 11 7.56548 11H10.3155V6.875C10.3155 6.69266 10.3879 6.5178 10.5168 6.38886C10.6458 6.25993 10.8206 6.1875 11.003 6.1875C11.1853 6.1875 11.3602 6.25993 11.4891 6.38886C11.618 6.5178 11.6905 6.69266 11.6905 6.875V11.6875Z" fill="white"/>
</svg>
