<svg width="22" height="22" viewBox="0 0 22 22" fill="none" xmlns="http://www.w3.org/2000/svg">
<path fill-rule="evenodd" clip-rule="evenodd" d="M15.7018 14.4677C15.3348 14.9212 14.9209 15.3351 14.4674 15.7021L18.6763 19.9109C19.0166 20.2518 19.5701 20.2518 19.9107 19.9109C20.2515 19.5704 20.2515 19.0169 19.9107 18.6765L15.7018 14.4677Z" fill="white"/>
<path fill-rule="evenodd" clip-rule="evenodd" d="M17.6223 10.5635H16.5593C15.9399 14.0355 12.9027 16.6749 9.25395 16.6749C5.1581 16.6749 1.83337 13.3499 1.83337 9.25392C1.83337 5.15796 5.15821 1.83334 9.25395 1.83334C13.2031 1.83334 16.4354 4.92478 16.6622 8.81766H15.7874C15.5627 5.40718 12.7213 2.70624 9.25399 2.70624C5.64019 2.70624 2.70631 5.64013 2.70631 9.25392C2.70631 12.8679 5.64019 15.8016 9.25399 15.8016C12.7212 15.8016 15.5626 13.101 15.7874 9.69056H17.6226C17.8023 9.18208 18.2877 8.81758 18.8574 8.81758C19.5803 8.81758 20.1669 9.40426 20.1669 10.1271C20.1669 10.85 19.5803 11.4367 18.8574 11.4367C18.2877 11.4367 17.8023 11.0721 17.6226 10.5635L17.6223 10.5635ZM3.59563 9.69048H5.39976C5.57968 10.199 6.06504 10.5635 6.63462 10.5635C6.83675 10.5635 7.02834 10.5177 7.19906 10.4356L8.07204 11.3087C7.99005 11.4793 7.94415 11.671 7.94415 11.873C7.94415 12.5959 8.53082 13.1825 9.25369 13.1825C9.97655 13.1825 10.5632 12.5959 10.5632 11.873C10.5632 11.671 10.5175 11.4793 10.4353 11.3087L11.3085 10.4356C11.479 10.5177 11.6708 10.5635 11.8728 10.5635C12.4425 10.5635 12.9278 10.1989 13.1078 9.69048H14.9119C14.6887 12.6187 12.2386 14.9286 9.25358 14.9286C6.26884 14.9286 3.81863 12.6187 3.59563 9.69048V9.69048ZM9.25358 11.4366C9.49458 11.4366 9.69014 11.6321 9.69014 11.873C9.69014 12.114 9.49458 12.3096 9.25358 12.3096C9.01271 12.3096 8.81716 12.114 8.81716 11.873C8.81716 11.6321 9.01272 11.4366 9.25358 11.4366ZM3.59563 8.81751C3.81866 5.88931 6.26892 3.57937 9.25358 3.57937C12.2385 3.57937 14.6885 5.88931 14.9119 8.81751H13.1078C12.9278 8.30888 12.4425 7.94439 11.8728 7.94439C11.1499 7.94439 10.5632 8.53106 10.5632 9.25392C10.5632 9.45605 10.6091 9.64764 10.6911 9.81837L9.81814 10.6913C9.64743 10.6093 9.45582 10.5635 9.25369 10.5635C9.05171 10.5635 8.85997 10.6093 8.68939 10.6913L7.81627 9.81837C7.89841 9.64766 7.94415 9.45605 7.94415 9.25392C7.94415 8.53106 7.35748 7.94439 6.63462 7.94439C6.06504 7.94439 5.57969 8.30889 5.39976 8.81751H3.59563ZM18.857 9.69048C19.098 9.69048 19.2935 9.88604 19.2935 10.127C19.2935 10.3679 19.098 10.5635 18.857 10.5635C18.616 10.5635 18.4204 10.3679 18.4204 10.127C18.4204 9.88604 18.616 9.69048 18.857 9.69048ZM6.63451 8.81751C6.87551 8.81751 7.07107 9.01306 7.07107 9.25392C7.07107 9.49493 6.87551 9.69048 6.63451 9.69048C6.39364 9.69048 6.19809 9.49493 6.19809 9.25392C6.19809 9.01306 6.39365 8.81751 6.63451 8.81751ZM11.8726 8.81751C12.1137 8.81751 12.3092 9.01306 12.3092 9.25392C12.3092 9.49493 12.1137 9.69048 11.8726 9.69048C11.6318 9.69048 11.4362 9.49493 11.4362 9.25392C11.4362 9.01306 11.6318 8.81751 11.8726 8.81751Z" fill="white"/>
</svg>
