<svg width="20" height="20" viewBox="0 0 20 20" fill="none" xmlns="http://www.w3.org/2000/svg">
<path fill-rule="evenodd" clip-rule="evenodd" d="M3.16187 0.833328H6.2602C7.5527 0.833328 8.58854 1.8875 8.58854 3.18091V6.30583C8.58854 7.60749 7.5527 8.65249 6.2602 8.65249H3.16187C1.87854 8.65249 0.833537 7.60749 0.833537 6.30583V3.18091C0.833537 1.8875 1.87854 0.833328 3.16187 0.833328ZM3.16171 11.3473H6.26004C7.55254 11.3473 8.58837 12.3932 8.58837 13.6949V16.8198C8.58837 18.1123 7.55254 19.1665 6.26004 19.1665H3.16171C1.87837 19.1665 0.833374 18.1123 0.833374 16.8198V13.6949C0.833374 12.3932 1.87837 11.3473 3.16171 11.3473ZM16.8384 0.83341H13.7401C12.4476 0.83341 11.4117 1.88758 11.4117 3.18099V6.30591C11.4117 7.60758 12.4476 8.65258 13.7401 8.65258H16.8384C18.1217 8.65258 19.1667 7.60758 19.1667 6.30591V3.18099C19.1667 1.88758 18.1217 0.83341 16.8384 0.83341ZM13.7401 11.3473H16.8384C18.1217 11.3473 19.1667 12.3932 19.1667 13.6949V16.8198C19.1667 18.1123 18.1217 19.1665 16.8384 19.1665H13.7401C12.4476 19.1665 11.4117 18.1123 11.4117 16.8198V13.6949C11.4117 12.3932 12.4476 11.3473 13.7401 11.3473Z" fill="white"/>
</svg>
