<svg width="22" height="22" viewBox="0 0 22 22" fill="none" xmlns="http://www.w3.org/2000/svg">
<path d="M2.75 13.8588H19.2499V13.8588C19.2499 14.5997 18.6493 15.2003 17.9084 15.2003H4.09151C3.35061 15.2003 2.75 14.5997 2.75 13.8588V13.8588Z" fill="white"/>
<path d="M5.15 2.75C3.82452 2.75 2.75 3.82452 2.75 5.15V8.37485L5.6193 8.37309L6.91953 4.96404C6.95751 4.86452 7.05154 4.80656 7.14891 4.82096C7.24628 4.83548 7.32213 4.92236 7.33202 5.0292L7.82705 9.92633L8.7973 6.79789C8.82539 6.70735 8.90123 6.64396 8.98871 6.63852C9.07618 6.63309 9.15697 6.68563 9.19495 6.77251L9.88954 8.37291H10.8086C10.9142 8.37291 11.0033 8.45613 11.0198 8.56839L11.4356 11.1917L12.9322 3.76549C12.9553 3.65512 13.046 3.57544 13.1499 3.58087C13.2538 3.58453 13.3397 3.66952 13.3545 3.78002L14.0046 8.37294H14.5293L15.445 6.74908C15.4895 6.6694 15.5737 6.62595 15.6578 6.63871C15.7419 6.65133 15.8112 6.71839 15.8344 6.80704L16.2419 8.3712L19.2499 8.37486V5.15C19.2499 3.82452 18.1754 2.75 16.8499 2.75L5.15 2.75Z" fill="white"/>
<path d="M15.8741 8.6736L15.5556 7.45155L14.833 8.73331C14.7934 8.80213 14.7257 8.84558 14.6499 8.84558H13.8215C13.7159 8.84558 13.6252 8.76046 13.6087 8.64643L13.1055 5.09448L11.6206 12.4628C11.5992 12.5714 11.5117 12.6474 11.411 12.6474H11.4061C11.3038 12.6438 11.2163 12.5623 11.1998 12.452L10.629 8.8457H9.75446C9.67194 8.8457 9.59609 8.79317 9.55972 8.71171L9.0334 7.50052L7.92296 11.0832C7.88993 11.1881 7.79589 11.2534 7.69691 11.2426C7.59632 11.2299 7.51702 11.1448 7.50712 11.0343L6.99566 5.98878L5.96096 8.7006C5.92793 8.78749 5.84875 8.84545 5.763 8.84545H2.75V13.386H19.2499V8.84545L16.0804 8.84368C15.9847 8.84368 15.9006 8.77486 15.8742 8.67345L15.8741 8.6736Z" fill="white"/>
<path d="M15.5016 18.0916H12.931L12.0796 15.6724H9.92473L9.07336 18.0916H6.50262C6.38384 18.0916 6.28809 18.8841 6.28809 19.0145C6.28809 19.1449 6.38373 19.2499 6.50262 19.2499H15.5018C15.6206 19.2499 15.7164 19.1431 15.7164 19.0145C15.7163 18.8841 15.6204 18.0916 15.5016 18.0916Z" fill="white"/>
</svg>
