<svg width="18" height="18" viewBox="0 0 18 18" fill="none" xmlns="http://www.w3.org/2000/svg">
<path d="M15.05 0.75H2.95C1.73692 0.75 0.75 1.7367 0.75 2.95V15.05C0.75 16.2633 1.73692 17.25 2.95 17.25H15.05C16.2633 17.25 17.25 16.2633 17.25 15.05V2.95C17.25 1.7367 16.2633 0.75 15.05 0.75ZM5.15 13.4C5.15 13.704 4.90373 13.95 4.6 13.95C4.29627 13.95 4.05 13.704 4.05 13.4V9.55C4.05 9.24603 4.29627 9 4.6 9C4.90373 9 5.15 9.24603 5.15 9.55V13.4ZM9.55 13.4C9.55 13.704 9.30373 13.95 9 13.95C8.69627 13.95 8.45 13.704 8.45 13.4V4.6C8.45 4.29603 8.69627 4.05 9 4.05C9.30373 4.05 9.55 4.29603 9.55 4.6V13.4ZM13.95 13.4C13.95 13.704 13.704 13.95 13.4 13.95C13.096 13.95 12.85 13.704 12.85 13.4V6.8C12.85 6.49603 13.096 6.25 13.4 6.25C13.704 6.25 13.95 6.49603 13.95 6.8V13.4Z" fill="white"/>
</svg>
