<svg width="20" height="20" viewBox="0 0 20 20" fill="none" xmlns="http://www.w3.org/2000/svg">
<path fill-rule="evenodd" clip-rule="evenodd" d="M8.07078 9.29415C7.66974 9.29415 7.35263 9.60581 7.35263 9.99998C7.35263 10.385 7.66974 10.7058 8.07078 10.7058H13.6667V15.0875C13.6667 17.3333 11.8107 19.1666 9.51639 19.1666H4.97436C2.68936 19.1666 0.833374 17.3425 0.833374 15.0966V4.91248C0.833374 2.65748 2.69868 0.833313 4.98369 0.833313H9.53505C11.8107 0.833313 13.6667 2.65748 13.6667 4.90331V9.29415H8.07078ZM16.9944 6.8285L19.6711 9.496C19.8086 9.6335 19.8819 9.80766 19.8819 10.0002C19.8819 10.1835 19.8086 10.3668 19.6711 10.4952L16.9944 13.1627C16.8569 13.3002 16.6736 13.3735 16.4994 13.3735C16.3161 13.3735 16.1327 13.3002 15.9952 13.1627C15.7202 12.8877 15.7202 12.4385 15.9952 12.1635L17.4619 10.706H13.6669V9.29433H17.4619L15.9952 7.83683C15.7202 7.56183 15.7202 7.11266 15.9952 6.83766C16.2702 6.5535 16.7194 6.5535 16.9944 6.8285Z" fill="white"/>
</svg>
