<svg width="144" height="20" viewBox="0 0 144 20" fill="none" xmlns="http://www.w3.org/2000/svg">
<g clip-path="url(#clip0_1606_18630)">
<path d="M82.2747 16.2145C82.4153 16.208 82.5558 16.2299 82.6876 16.2788C82.8194 16.3278 82.9397 16.4027 83.0411 16.4992C83.1403 16.6036 83.2169 16.7268 83.2665 16.8614C83.316 16.996 83.3373 17.1391 83.3292 17.282V19.4565C83.3307 19.4655 83.33 19.4746 83.3272 19.4833C83.3244 19.4919 83.3195 19.4998 83.313 19.5062C83.3065 19.5127 83.2986 19.5175 83.2898 19.5202C83.2811 19.523 83.2718 19.5237 83.2627 19.5222H83.0558C83.0467 19.5237 83.0374 19.523 83.0286 19.5202C83.0199 19.5175 83.0119 19.5127 83.0054 19.5062C82.9989 19.4998 82.9941 19.4919 82.9912 19.4833C82.9884 19.4746 82.9877 19.4655 82.9892 19.4565V17.3465C82.995 17.2358 82.9779 17.1251 82.939 17.0211C82.9001 16.9172 82.8403 16.8221 82.763 16.7417C82.6858 16.6671 82.594 16.6089 82.4932 16.5706C82.3924 16.5323 82.2848 16.5147 82.1769 16.5189C82.0652 16.5139 81.9537 16.5308 81.8486 16.5686C81.7436 16.6064 81.6471 16.6643 81.5648 16.7391C81.4863 16.8169 81.425 16.9101 81.3851 17.0126C81.3451 17.1152 81.3272 17.2248 81.3326 17.3346V19.4571C81.3341 19.4661 81.3335 19.4753 81.3306 19.484C81.3278 19.4926 81.323 19.5005 81.3165 19.5069C81.31 19.5133 81.302 19.5181 81.2932 19.5209C81.2845 19.5237 81.2752 19.5244 81.2661 19.5229H81.0585C81.0495 19.5244 81.0402 19.5237 81.0314 19.5209C81.0227 19.5181 81.0147 19.5133 81.0082 19.5069C81.0017 19.5005 80.9968 19.4926 80.994 19.484C80.9912 19.4753 80.9905 19.4661 80.992 19.4571V17.3465C80.9978 17.236 80.9811 17.1256 80.9428 17.0217C80.9045 16.9178 80.8454 16.8226 80.7691 16.7417C80.6927 16.667 80.6015 16.6086 80.5012 16.5703C80.401 16.532 80.2938 16.5145 80.1863 16.5189C80.0746 16.5131 79.9628 16.5297 79.8576 16.5675C79.7525 16.6053 79.6561 16.6637 79.5743 16.7391C79.4974 16.8178 79.4377 16.9112 79.3989 17.0137C79.3601 17.1161 79.343 17.2254 79.3487 17.3346V19.4571C79.3502 19.4661 79.3495 19.4753 79.3467 19.484C79.3439 19.4926 79.339 19.5005 79.3325 19.5069C79.326 19.5133 79.3181 19.5181 79.3093 19.5209C79.3006 19.5237 79.2913 19.5244 79.2822 19.5229H79.0673C79.0582 19.5244 79.0489 19.5237 79.0402 19.5209C79.0314 19.5181 79.0235 19.5133 79.017 19.5069C79.0104 19.5005 79.0056 19.4926 79.0028 19.484C79 19.4753 78.9993 19.4661 79.0008 19.4571V16.325C78.9993 16.316 79 16.3068 79.0028 16.2982C79.0056 16.2895 79.0104 16.2816 79.017 16.2752C79.0235 16.2688 79.0314 16.264 79.0402 16.2612C79.0489 16.2584 79.0582 16.2577 79.0673 16.2592H79.2809C79.2899 16.2577 79.2992 16.2584 79.308 16.2612C79.3167 16.264 79.3247 16.2688 79.3312 16.2752C79.3377 16.2816 79.3426 16.2895 79.3454 16.2982C79.3482 16.3068 79.3489 16.316 79.3474 16.325V16.6162C79.3472 16.6203 79.3483 16.6245 79.3506 16.628C79.3528 16.6315 79.3561 16.6343 79.36 16.6359C79.3617 16.637 79.3636 16.6377 79.3657 16.638C79.3677 16.6382 79.3697 16.6381 79.3716 16.6374C79.3736 16.6368 79.3753 16.6357 79.3768 16.6343C79.3782 16.6329 79.3793 16.6312 79.38 16.6293C79.4701 16.4924 79.5987 16.3844 79.7499 16.3184C79.9166 16.2467 80.097 16.2113 80.2788 16.2145C80.484 16.2091 80.6868 16.2596 80.8649 16.3605C81.0277 16.4569 81.1568 16.6003 81.2348 16.7713C81.2433 16.7884 81.2541 16.7906 81.2674 16.7779C81.3522 16.5995 81.4919 16.4522 81.6666 16.3572C81.8537 16.2592 82.063 16.2101 82.2747 16.2145ZM85.556 19.5728C85.2746 19.5803 84.9985 19.4963 84.7702 19.3336C84.5533 19.175 84.397 18.9487 84.3265 18.6914C84.2692 18.4258 84.245 18.1542 84.2546 17.8828C84.2447 17.6136 84.2688 17.3442 84.3265 17.0809C84.3969 16.8251 84.5529 16.6004 84.7689 16.4433C85.0017 16.2804 85.2822 16.1975 85.5673 16.2073C85.8496 16.2002 86.1266 16.2842 86.3563 16.4466C86.5732 16.6013 86.7293 16.8254 86.7981 17.0809C86.826 17.1901 86.8436 17.3017 86.8506 17.4142C86.8595 17.5373 86.8639 17.6937 86.8639 17.8835C86.8639 18.082 86.8595 18.2417 86.8506 18.3627C86.8434 18.4736 86.8258 18.5836 86.7981 18.6914C86.7306 18.9492 86.5744 19.1758 86.3563 19.3323C86.1237 19.4959 85.8434 19.5799 85.558 19.5715L85.556 19.5728ZM85.556 19.2685C85.7699 19.2739 85.9793 19.2064 86.1487 19.0772C86.311 18.9522 86.4234 18.7746 86.4661 18.5757C86.5055 18.3493 86.5208 18.1196 86.512 17.8901C86.5199 17.6606 86.5068 17.4309 86.4727 17.2038C86.4315 17.0034 86.3189 16.8243 86.1554 16.699C85.9831 16.5713 85.7719 16.5053 85.5566 16.5116C85.3412 16.5041 85.1297 16.5703 84.9579 16.699C84.7956 16.8249 84.6842 17.0039 84.6438 17.2038C84.6078 17.4309 84.5942 17.661 84.6033 17.8907C84.596 18.1202 84.6114 18.3498 84.6492 18.5763C84.6895 18.7762 84.8009 18.9553 84.9632 19.0812C85.135 19.2098 85.3465 19.276 85.562 19.2685H85.556ZM89.1938 16.2145C89.3435 16.2082 89.493 16.2319 89.6332 16.2842C89.7734 16.3365 89.9014 16.4163 90.0095 16.5189C90.1142 16.6243 90.1959 16.7499 90.2495 16.8879C90.303 17.0258 90.3273 17.1732 90.3208 17.3208V19.4565C90.3223 19.4655 90.3216 19.4746 90.3188 19.4833C90.316 19.4919 90.3112 19.4998 90.3047 19.5062C90.2982 19.5127 90.2902 19.5175 90.2814 19.5202C90.2727 19.523 90.2634 19.5237 90.2543 19.5222H90.0381C90.029 19.5237 90.0197 19.523 90.011 19.5202C90.0022 19.5175 89.9942 19.5127 89.9877 19.5062C89.9812 19.4998 89.9764 19.4919 89.9736 19.4833C89.9707 19.4746 89.9701 19.4655 89.9716 19.4565V17.3859C89.976 17.2715 89.9574 17.1575 89.9168 17.0503C89.8763 16.9431 89.8146 16.8449 89.7354 16.7614C89.6557 16.6806 89.5598 16.6173 89.4538 16.5755C89.3478 16.5337 89.234 16.5144 89.12 16.5189C89.0034 16.5138 88.8871 16.5322 88.7779 16.5727C88.6687 16.6133 88.5689 16.6752 88.4846 16.7549C88.4034 16.8359 88.34 16.9326 88.2984 17.0389C88.2567 17.1452 88.2377 17.2588 88.2424 17.3727V19.4565C88.2439 19.4655 88.2433 19.4746 88.2404 19.4833C88.2376 19.4919 88.2328 19.4998 88.2263 19.5062C88.2198 19.5127 88.2118 19.5175 88.203 19.5202C88.1943 19.523 88.185 19.5237 88.1759 19.5222H87.9597C87.9506 19.5237 87.9413 19.523 87.9326 19.5202C87.9238 19.5175 87.9158 19.5127 87.9093 19.5062C87.9028 19.4998 87.898 19.4919 87.8952 19.4833C87.8924 19.4746 87.8917 19.4655 87.8932 19.4565V16.325C87.8917 16.316 87.8924 16.3068 87.8952 16.2982C87.898 16.2895 87.9028 16.2816 87.9093 16.2752C87.9158 16.2688 87.9238 16.264 87.9326 16.2612C87.9413 16.2584 87.9506 16.2577 87.9597 16.2592H88.1759C88.185 16.2577 88.1943 16.2584 88.203 16.2612C88.2118 16.264 88.2198 16.2688 88.2263 16.2752C88.2328 16.2816 88.2376 16.2895 88.2404 16.2982C88.2433 16.3068 88.2439 16.316 88.2424 16.325V16.6418C88.2424 16.6549 88.2455 16.6626 88.2518 16.6648C88.258 16.667 88.2635 16.6637 88.2684 16.6549C88.3626 16.5134 88.4939 16.3998 88.6483 16.3263C88.8183 16.2481 89.0043 16.2094 89.1918 16.2132L89.1938 16.2145ZM91.6827 15.6065C91.6391 15.6081 91.5957 15.6009 91.5551 15.5853C91.5145 15.5697 91.4775 15.5461 91.4465 15.5158C91.416 15.4852 91.3921 15.4488 91.3763 15.4088C91.3605 15.3688 91.3531 15.326 91.3547 15.2831C91.3531 15.2401 91.3605 15.1972 91.3762 15.157C91.392 15.1169 91.4159 15.0804 91.4465 15.0497C91.4775 15.0195 91.5145 14.9958 91.5551 14.9802C91.5957 14.9646 91.6392 14.9574 91.6827 14.959C91.7261 14.9575 91.7695 14.9647 91.81 14.9803C91.8505 14.9959 91.8873 15.0195 91.9182 15.0497C91.9488 15.0804 91.9728 15.1169 91.9886 15.157C92.0043 15.1972 92.0117 15.2401 92.01 15.2831C92.0116 15.326 92.0043 15.3688 91.9885 15.4088C91.9727 15.4488 91.9488 15.4852 91.9182 15.5158C91.8873 15.546 91.8505 15.5696 91.81 15.5852C91.7695 15.6008 91.7261 15.608 91.6827 15.6065ZM91.5583 19.515C91.5492 19.5165 91.5399 19.5158 91.5312 19.513C91.5224 19.5102 91.5144 19.5054 91.5079 19.499C91.5014 19.4926 91.4966 19.4847 91.4938 19.4761C91.491 19.4674 91.4903 19.4582 91.4918 19.4493V16.3177C91.4903 16.3088 91.491 16.2996 91.4938 16.2909C91.4966 16.2823 91.5014 16.2744 91.5079 16.268C91.5144 16.2616 91.5224 16.2568 91.5312 16.254C91.5399 16.2512 91.5492 16.2505 91.5583 16.252H91.7745C91.7836 16.2505 91.7929 16.2512 91.8016 16.254C91.8104 16.2568 91.8184 16.2616 91.8249 16.268C91.8314 16.2744 91.8362 16.2823 91.839 16.2909C91.8419 16.2996 91.8425 16.3088 91.841 16.3177V19.4493C91.8425 19.4582 91.8419 19.4674 91.839 19.4761C91.8362 19.4847 91.8314 19.4926 91.8249 19.499C91.8184 19.5054 91.8104 19.5102 91.8016 19.513C91.7929 19.5158 91.7836 19.5165 91.7745 19.515H91.5583ZM94.4663 16.4867C94.4678 16.4956 94.4671 16.5048 94.4643 16.5135C94.4615 16.5221 94.4566 16.53 94.4501 16.5364C94.4436 16.5428 94.4357 16.5476 94.4269 16.5504C94.4182 16.5532 94.4089 16.5539 94.3998 16.5524H93.6327C93.6292 16.552 93.6256 16.5523 93.6223 16.5535C93.6189 16.5546 93.6159 16.5565 93.6134 16.559C93.6109 16.5614 93.609 16.5644 93.6078 16.5677C93.6067 16.571 93.6063 16.5746 93.6067 16.578V18.623C93.5981 18.7059 93.607 18.7896 93.633 18.8688C93.659 18.9481 93.7015 19.0211 93.7578 19.0831C93.8979 19.1832 94.0699 19.2299 94.2421 19.2146H94.3931C94.4022 19.2131 94.4115 19.2138 94.4203 19.2166C94.429 19.2194 94.437 19.2242 94.4435 19.2306C94.45 19.237 94.4548 19.2449 94.4577 19.2535C94.4605 19.2622 94.4612 19.2714 94.4597 19.2803V19.4552C94.4612 19.4641 94.4605 19.4733 94.4577 19.482C94.4548 19.4906 94.45 19.4985 94.4435 19.5049C94.437 19.5113 94.429 19.5161 94.4203 19.5189C94.4115 19.5217 94.4022 19.5224 94.3931 19.5209L94.1935 19.5275C93.9501 19.5444 93.7076 19.4831 93.5023 19.3526C93.4157 19.2709 93.3491 19.1706 93.3077 19.0595C93.2663 18.9484 93.2512 18.8295 93.2635 18.7117V16.5767C93.2639 16.5732 93.2635 16.5697 93.2624 16.5664C93.2612 16.5631 93.2593 16.5601 93.2568 16.5576C93.2543 16.5552 93.2513 16.5533 93.2479 16.5522C93.2446 16.551 93.241 16.5507 93.2375 16.5511H92.8463C92.8372 16.5526 92.8279 16.5519 92.8192 16.5491C92.8104 16.5463 92.8025 16.5415 92.796 16.5351C92.7895 16.5287 92.7846 16.5208 92.7818 16.5122C92.779 16.5035 92.7783 16.4943 92.7798 16.4853V16.325C92.7783 16.316 92.779 16.3068 92.7818 16.2982C92.7846 16.2895 92.7895 16.2816 92.796 16.2752C92.8025 16.2688 92.8104 16.264 92.8192 16.2612C92.8279 16.2584 92.8372 16.2577 92.8463 16.2592H93.2395C93.243 16.2596 93.2466 16.2593 93.2499 16.2581C93.2533 16.257 93.2563 16.2551 93.2588 16.2527C93.2613 16.2502 93.2632 16.2472 93.2644 16.2439C93.2655 16.2406 93.2659 16.2371 93.2654 16.2336V15.4961C93.264 15.4871 93.2646 15.4779 93.2675 15.4693C93.2703 15.4606 93.2751 15.4527 93.2816 15.4463C93.2881 15.4399 93.2961 15.4351 93.3048 15.4323C93.3136 15.4295 93.3229 15.4288 93.332 15.4303H93.5415C93.5506 15.4288 93.5599 15.4295 93.5687 15.4323C93.5774 15.4351 93.5854 15.4399 93.5919 15.4463C93.5984 15.4527 93.6033 15.4606 93.6061 15.4693C93.6089 15.4779 93.6096 15.4871 93.6081 15.4961V16.2336C93.6076 16.2371 93.608 16.2406 93.6092 16.2439C93.6103 16.2472 93.6122 16.2502 93.6147 16.2527C93.6172 16.2551 93.6203 16.257 93.6236 16.2581C93.627 16.2593 93.6305 16.2596 93.634 16.2592H94.4005C94.4095 16.2577 94.4188 16.2584 94.4276 16.2612C94.4363 16.264 94.4443 16.2688 94.4508 16.2752C94.4573 16.2816 94.4622 16.2895 94.465 16.2982C94.4678 16.3068 94.4685 16.316 94.467 16.325L94.4663 16.4867ZM96.5228 19.5761C96.2414 19.5836 95.9653 19.4995 95.737 19.3369C95.5199 19.1788 95.363 18.953 95.292 18.696C95.2346 18.4304 95.2105 18.1588 95.2201 17.8874C95.2102 17.6182 95.2343 17.3488 95.292 17.0855C95.3623 16.8298 95.5179 16.6051 95.7337 16.4479C95.9666 16.2851 96.247 16.2022 96.5321 16.2119C96.8144 16.2048 97.0914 16.2888 97.3211 16.4512C97.538 16.6059 97.6941 16.83 97.7629 17.0855C97.7908 17.1947 97.8084 17.3063 97.8154 17.4188C97.8243 17.5419 97.8287 17.6983 97.8287 17.8881C97.8287 18.0866 97.8243 18.2463 97.8154 18.3673C97.8082 18.4782 97.7906 18.5882 97.7629 18.696C97.6954 18.9538 97.5392 19.1804 97.3211 19.3369C97.0885 19.5004 96.8082 19.5845 96.5228 19.5761ZM96.5228 19.2718C96.7367 19.2772 96.9461 19.2097 97.1155 19.0805C97.2778 18.9555 97.3902 18.7778 97.4329 18.5789C97.4723 18.3526 97.4876 18.1228 97.4788 17.8934C97.4869 17.6639 97.4737 17.4342 97.4395 17.2071C97.3983 17.0067 97.2857 16.8276 97.1222 16.7023C96.9499 16.5745 96.7387 16.5084 96.5234 16.5149C96.308 16.5074 96.0965 16.5736 95.9247 16.7023C95.7624 16.8282 95.651 17.0072 95.6106 17.2071C95.5728 17.4338 95.5575 17.6637 95.5647 17.8934C95.5575 18.1228 95.5729 18.3524 95.6106 18.5789C95.651 18.7788 95.7624 18.9579 95.9247 19.0838C96.0965 19.2124 96.308 19.2786 96.5234 19.2711L96.5228 19.2718ZM100.105 16.2336C100.236 16.2299 100.366 16.2564 100.485 16.3112C100.501 16.3172 100.514 16.3295 100.522 16.3452C100.529 16.361 100.53 16.379 100.524 16.3953L100.465 16.6024C100.463 16.6115 100.46 16.6201 100.454 16.6275C100.449 16.6349 100.441 16.6407 100.433 16.6446C100.424 16.6485 100.415 16.6502 100.406 16.6495C100.396 16.6489 100.387 16.6461 100.379 16.6411C100.275 16.604 100.163 16.5885 100.052 16.5958C99.9371 16.5954 99.8233 16.6197 99.7188 16.6672C99.6142 16.7146 99.5214 16.784 99.4467 16.8705C99.2861 17.0521 99.2006 17.2868 99.2072 17.5279V19.4565C99.2087 19.4655 99.208 19.4746 99.2052 19.4833C99.2024 19.4919 99.1976 19.4998 99.1911 19.5062C99.1846 19.5127 99.1766 19.5175 99.1678 19.5202C99.1591 19.523 99.1498 19.5237 99.1407 19.5222H98.9245C98.9154 19.5237 98.9061 19.523 98.8974 19.5202C98.8886 19.5175 98.8806 19.5127 98.8741 19.5062C98.8676 19.4998 98.8628 19.4919 98.86 19.4833C98.8571 19.4746 98.8565 19.4655 98.858 19.4565V16.325C98.8565 16.316 98.8571 16.3068 98.86 16.2982C98.8628 16.2895 98.8676 16.2816 98.8741 16.2752C98.8806 16.2688 98.8886 16.264 98.8974 16.2612C98.9061 16.2584 98.9154 16.2577 98.9245 16.2592H99.1407C99.1498 16.2577 99.1591 16.2584 99.1678 16.2612C99.1766 16.264 99.1846 16.2688 99.1911 16.2752C99.1976 16.2816 99.2024 16.2895 99.2052 16.2982C99.208 16.3068 99.2087 16.316 99.2072 16.325V16.7654C99.2072 16.7781 99.2106 16.7855 99.2172 16.7877C99.2239 16.7899 99.2294 16.7844 99.2338 16.7713C99.3175 16.6122 99.4403 16.4766 99.5911 16.3769C99.7441 16.2797 99.9229 16.2299 100.105 16.2336ZM100.97 19.9994C100.96 20.0001 100.951 19.9987 100.943 19.9953C100.934 19.9919 100.927 19.9865 100.92 19.9797C100.915 19.9725 100.911 19.964 100.909 19.9549C100.907 19.9459 100.908 19.9366 100.91 19.9278L101.218 18.5816C101.22 18.5645 101.229 18.5488 101.242 18.5378C101.256 18.5269 101.273 18.5216 101.29 18.5231H101.473C101.482 18.5224 101.492 18.5239 101.5 18.5273C101.509 18.5307 101.516 18.536 101.522 18.5428C101.528 18.5501 101.532 18.5586 101.533 18.5677C101.535 18.5767 101.534 18.586 101.532 18.5947L101.177 19.9403C101.177 19.949 101.175 19.9575 101.171 19.9652C101.167 19.973 101.161 19.9799 101.154 19.9854C101.148 19.9909 101.14 19.9949 101.131 19.9973C101.123 19.9996 101.114 20.0001 101.105 19.9988H100.97V19.9994ZM107.309 16.2139C107.45 16.2073 107.59 16.2292 107.722 16.2781C107.854 16.3271 107.974 16.4021 108.076 16.4985C108.175 16.6029 108.251 16.7262 108.301 16.8607C108.351 16.9953 108.372 17.1384 108.364 17.2814V19.4558C108.365 19.4648 108.365 19.474 108.362 19.4826C108.359 19.4913 108.354 19.4992 108.348 19.5056C108.341 19.512 108.333 19.5168 108.324 19.5196C108.316 19.5224 108.306 19.523 108.297 19.5216H108.088C108.079 19.523 108.07 19.5224 108.061 19.5196C108.052 19.5168 108.044 19.512 108.038 19.5056C108.031 19.4992 108.027 19.4913 108.024 19.4826C108.021 19.474 108.02 19.4648 108.022 19.4558V17.3465C108.028 17.2358 108.011 17.1252 107.972 17.0212C107.933 16.9173 107.873 16.8222 107.796 16.7417C107.719 16.6671 107.627 16.6089 107.526 16.5706C107.426 16.5323 107.318 16.5147 107.21 16.5189C107.098 16.5139 106.987 16.5308 106.882 16.5686C106.777 16.6064 106.68 16.6643 106.598 16.7391C106.519 16.8169 106.458 16.9101 106.418 17.0126C106.378 17.1152 106.36 17.2248 106.366 17.3346V19.4571C106.367 19.4661 106.367 19.4753 106.364 19.484C106.361 19.4926 106.356 19.5005 106.35 19.5069C106.343 19.5133 106.335 19.5181 106.326 19.5209C106.318 19.5237 106.308 19.5244 106.299 19.5229H106.09C106.081 19.5244 106.071 19.5237 106.063 19.5209C106.054 19.5181 106.046 19.5133 106.039 19.5069C106.033 19.5005 106.028 19.4926 106.025 19.484C106.022 19.4753 106.022 19.4661 106.023 19.4571V17.3465C106.029 17.236 106.012 17.1256 105.974 17.0217C105.936 16.9178 105.877 16.8226 105.8 16.7417C105.724 16.667 105.633 16.6086 105.532 16.5703C105.432 16.532 105.325 16.5145 105.218 16.5189C105.106 16.5131 104.994 16.5297 104.889 16.5675C104.784 16.6053 104.687 16.6637 104.605 16.7391C104.528 16.8177 104.469 16.9111 104.43 17.0136C104.391 17.1161 104.374 17.2253 104.379 17.3346V19.4571C104.381 19.4661 104.38 19.4753 104.377 19.484C104.374 19.4926 104.37 19.5005 104.363 19.5069C104.357 19.5133 104.349 19.5181 104.34 19.5209C104.331 19.5237 104.322 19.5244 104.313 19.5229H104.097C104.087 19.5244 104.078 19.5237 104.069 19.5209C104.061 19.5181 104.053 19.5133 104.046 19.5069C104.04 19.5005 104.035 19.4926 104.032 19.484C104.029 19.4753 104.028 19.4661 104.03 19.4571V16.325C104.028 16.316 104.029 16.3068 104.032 16.2982C104.035 16.2895 104.04 16.2816 104.046 16.2752C104.053 16.2688 104.061 16.264 104.069 16.2612C104.078 16.2584 104.087 16.2577 104.097 16.2592H104.312C104.321 16.2577 104.33 16.2584 104.339 16.2612C104.348 16.264 104.356 16.2688 104.362 16.2752C104.369 16.2816 104.374 16.2895 104.377 16.2982C104.379 16.3068 104.38 16.316 104.379 16.325V16.6162C104.378 16.6203 104.38 16.6245 104.382 16.628C104.384 16.6315 104.387 16.6343 104.391 16.6359C104.393 16.637 104.395 16.6377 104.397 16.638C104.399 16.6382 104.401 16.6381 104.403 16.6374C104.405 16.6368 104.407 16.6357 104.408 16.6343C104.409 16.6329 104.411 16.6312 104.411 16.6293C104.501 16.4924 104.63 16.3844 104.781 16.3184C104.947 16.2469 105.127 16.2115 105.309 16.2145C105.514 16.2091 105.717 16.2596 105.895 16.3605C106.058 16.4569 106.187 16.6003 106.265 16.7713C106.273 16.7884 106.284 16.7906 106.297 16.7779C106.382 16.5995 106.522 16.4522 106.697 16.3572C106.884 16.2591 107.093 16.2099 107.305 16.2145L107.309 16.2139ZM110.63 19.2685C110.816 19.2737 110.999 19.2253 111.157 19.1291C111.305 19.0342 111.424 18.901 111.501 18.7439C111.523 18.7049 111.551 18.6942 111.586 18.7117L111.757 18.7959C111.796 18.8173 111.807 18.8454 111.789 18.88C111.694 19.0907 111.535 19.267 111.334 19.3848C111.113 19.5137 110.859 19.5786 110.602 19.5722C110.326 19.5807 110.053 19.5037 109.823 19.352C109.61 19.2074 109.455 18.9947 109.384 18.7499C109.347 18.632 109.323 18.5106 109.312 18.3877C109.298 18.2562 109.292 18.0879 109.292 17.8828C109.292 17.6716 109.295 17.5121 109.302 17.4043C109.307 17.304 109.322 17.2044 109.344 17.1065C109.407 16.8463 109.558 16.6155 109.774 16.4531C110.004 16.2844 110.285 16.1977 110.572 16.2073C110.882 16.1916 111.187 16.2894 111.429 16.4821C111.651 16.6797 111.793 16.9498 111.829 17.2426C111.843 17.338 111.851 17.4341 111.855 17.5305C111.859 17.6405 111.861 17.7774 111.861 17.9413C111.863 17.9503 111.862 17.9595 111.859 17.9681C111.856 17.9768 111.852 17.9847 111.845 17.9911C111.839 17.9975 111.831 18.0023 111.822 18.0051C111.813 18.0079 111.804 18.0085 111.795 18.0071H109.658C109.654 18.0066 109.651 18.007 109.647 18.0082C109.644 18.0093 109.641 18.0112 109.638 18.0136C109.636 18.0161 109.634 18.0191 109.633 18.0224C109.632 18.0257 109.631 18.0292 109.632 18.0327C109.625 18.2167 109.636 18.401 109.665 18.5829C109.706 18.784 109.822 18.9628 109.989 19.0844C110.176 19.2132 110.4 19.2781 110.628 19.2691L110.63 19.2685ZM109.68 17.1847C109.65 17.3513 109.635 17.5203 109.634 17.6896C109.634 17.693 109.634 17.6966 109.636 17.6999C109.637 17.7032 109.639 17.7062 109.641 17.7086C109.644 17.7111 109.647 17.713 109.65 17.7141C109.653 17.7153 109.657 17.7156 109.66 17.7152H111.487C111.491 17.7156 111.494 17.7153 111.498 17.7141C111.501 17.713 111.504 17.7111 111.507 17.7086C111.509 17.7062 111.511 17.7032 111.512 17.6999C111.513 17.6966 111.514 17.693 111.513 17.6896C111.517 17.5272 111.506 17.3649 111.481 17.2045C111.438 17.0063 111.327 16.829 111.167 16.7029C110.996 16.572 110.784 16.5043 110.568 16.5116C110.356 16.5042 110.147 16.5694 109.978 16.6963C109.822 16.8181 109.715 16.9915 109.677 17.1847H109.68ZM113.938 16.208C114.097 16.197 114.256 16.2174 114.407 16.2679C114.558 16.3185 114.697 16.3982 114.816 16.5024C114.918 16.6071 114.998 16.7314 115.05 16.8676C115.101 17.0039 115.124 17.1491 115.117 17.2945V19.4558C115.119 19.4648 115.118 19.474 115.115 19.4826C115.112 19.4913 115.108 19.4992 115.101 19.5056C115.095 19.512 115.087 19.5168 115.078 19.5196C115.069 19.5224 115.06 19.523 115.051 19.5216H114.834C114.825 19.523 114.816 19.5224 114.807 19.5196C114.799 19.5168 114.791 19.512 114.784 19.5056C114.778 19.4992 114.773 19.4913 114.77 19.4826C114.767 19.474 114.766 19.4648 114.768 19.4558V19.1515C114.768 19.1477 114.767 19.144 114.765 19.1407C114.764 19.1373 114.761 19.1345 114.758 19.1324C114.751 19.128 114.744 19.1302 114.735 19.139C114.619 19.2832 114.466 19.3947 114.293 19.4624C114.1 19.5378 113.894 19.5751 113.687 19.5722C113.413 19.5817 113.144 19.5032 112.92 19.3487C112.813 19.268 112.729 19.1626 112.674 19.0418C112.619 18.921 112.595 18.7886 112.605 18.6565C112.599 18.511 112.629 18.3662 112.692 18.2345C112.755 18.1027 112.849 17.9877 112.966 17.8993C113.254 17.699 113.602 17.6008 113.954 17.6206H114.741C114.745 17.621 114.748 17.6206 114.752 17.6195C114.755 17.6183 114.758 17.6165 114.761 17.614C114.763 17.6115 114.765 17.6085 114.766 17.6052C114.767 17.6019 114.768 17.5984 114.767 17.5949V17.3037C114.778 17.0924 114.704 16.8853 114.561 16.7279C114.476 16.6513 114.376 16.5927 114.268 16.556C114.159 16.5192 114.044 16.505 113.929 16.5143C113.736 16.5067 113.545 16.5539 113.379 16.6503C113.312 16.6899 113.254 16.7423 113.208 16.8046C113.163 16.8668 113.13 16.9376 113.113 17.0125C113.112 17.0216 113.109 17.0305 113.105 17.0384C113.1 17.0464 113.094 17.0534 113.086 17.0589C113.079 17.0644 113.071 17.0683 113.062 17.0704C113.053 17.0725 113.043 17.0727 113.034 17.071L112.805 17.0388C112.755 17.0283 112.735 17.0095 112.745 16.9823C112.765 16.867 112.809 16.7571 112.876 16.6601C112.942 16.563 113.028 16.4811 113.129 16.4196C113.371 16.27 113.652 16.1956 113.938 16.206L113.938 16.208ZM113.743 19.2751C113.997 19.281 114.247 19.2111 114.461 19.0746C114.556 19.0164 114.635 18.9344 114.688 18.8368C114.742 18.7392 114.768 18.6294 114.765 18.5185V17.9269C114.765 17.9237 114.765 17.9205 114.764 17.9175C114.763 17.9145 114.761 17.9118 114.759 17.9095C114.756 17.9072 114.754 17.9054 114.751 17.9042C114.748 17.903 114.745 17.9025 114.741 17.9026H113.987C113.722 17.8911 113.461 17.9599 113.237 18.0998C113.147 18.1575 113.073 18.2373 113.023 18.3314C112.973 18.4254 112.949 18.5306 112.952 18.6368C112.946 18.7286 112.964 18.8205 113.003 18.9041C113.042 18.9877 113.101 19.0605 113.175 19.116C113.342 19.2294 113.542 19.2861 113.745 19.2777L113.743 19.2751ZM117.182 19.5531C116.968 19.5572 116.755 19.5188 116.556 19.4401C116.391 19.3759 116.245 19.2698 116.134 19.1324C116.036 19.011 115.983 18.8604 115.983 18.7052V18.621C115.981 18.6121 115.982 18.6029 115.985 18.5942C115.988 18.5856 115.992 18.5777 115.999 18.5713C116.005 18.5648 116.013 18.56 116.022 18.5573C116.031 18.5545 116.04 18.5538 116.049 18.5553H116.249C116.258 18.5538 116.267 18.5545 116.276 18.5573C116.285 18.56 116.293 18.5648 116.299 18.5713C116.306 18.5777 116.311 18.5856 116.313 18.5942C116.316 18.6029 116.317 18.6121 116.315 18.621V18.6914C116.318 18.7744 116.341 18.8554 116.384 18.9272C116.426 18.999 116.486 19.0591 116.558 19.1022C116.739 19.2224 116.955 19.2825 117.174 19.2738C117.387 19.2839 117.599 19.2223 117.772 19.0989C117.843 19.0503 117.901 18.9855 117.941 18.9099C117.981 18.8343 118.002 18.7503 118.001 18.6651C118.003 18.6101 117.994 18.5554 117.974 18.5042C117.953 18.453 117.923 18.4064 117.884 18.3673C117.804 18.2893 117.71 18.2287 117.605 18.1892C117.499 18.148 117.338 18.0952 117.124 18.0307C116.924 17.9731 116.727 17.904 116.535 17.8237C116.39 17.7616 116.261 17.6677 116.158 17.5489C116.054 17.4229 115.999 17.2635 116.005 17.1006C116.002 16.9778 116.029 16.856 116.084 16.746C116.14 16.636 116.222 16.5411 116.323 16.4696C116.567 16.3025 116.861 16.2195 117.158 16.2336C117.367 16.2294 117.576 16.2679 117.77 16.3466C117.932 16.4114 118.075 16.5176 118.182 16.6543C118.28 16.7806 118.332 16.9353 118.33 17.094V17.1138C118.331 17.1227 118.331 17.1319 118.328 17.1406C118.325 17.1492 118.32 17.1571 118.314 17.1635C118.307 17.1699 118.299 17.1747 118.291 17.1775C118.282 17.1803 118.272 17.181 118.263 17.1795H118.06C118.051 17.181 118.042 17.1803 118.033 17.1775C118.025 17.1747 118.017 17.1699 118.01 17.1635C118.004 17.1571 117.999 17.1492 117.996 17.1406C117.993 17.1319 117.992 17.1227 117.994 17.1138V17.094C117.993 17.0118 117.971 16.9311 117.931 16.8594C117.89 16.7876 117.832 16.727 117.762 16.6832C117.58 16.5658 117.366 16.5081 117.15 16.5182C116.942 16.5082 116.736 16.5612 116.56 16.6701C116.49 16.7139 116.433 16.7747 116.394 16.8466C116.355 16.9186 116.336 16.9993 116.337 17.0809C116.334 17.1552 116.351 17.229 116.388 17.2941C116.424 17.3592 116.478 17.413 116.544 17.4497C116.748 17.5585 116.965 17.6432 117.189 17.7021C117.395 17.7591 117.597 17.8283 117.795 17.9091C117.943 17.9722 118.076 18.0659 118.185 18.1839C118.297 18.3111 118.355 18.4756 118.349 18.644C118.352 18.7706 118.325 18.8963 118.27 19.0106C118.215 19.1249 118.133 19.2246 118.031 19.3014C117.786 19.478 117.486 19.5659 117.183 19.5505L117.182 19.5531ZM121.302 16.325C121.301 16.316 121.302 16.3068 121.304 16.2982C121.307 16.2895 121.312 16.2816 121.319 16.2752C121.325 16.2688 121.333 16.264 121.342 16.2612C121.351 16.2584 121.36 16.2577 121.369 16.2592H121.579C121.588 16.2577 121.597 16.2584 121.606 16.2612C121.614 16.264 121.622 16.2688 121.629 16.2752C121.635 16.2816 121.64 16.2895 121.643 16.2982C121.646 16.3068 121.647 16.316 121.645 16.325V19.4571C121.647 19.4661 121.646 19.4753 121.643 19.484C121.64 19.4926 121.635 19.5005 121.629 19.5069C121.622 19.5133 121.614 19.5181 121.606 19.5209C121.597 19.5237 121.588 19.5244 121.579 19.5229H121.368C121.359 19.5244 121.349 19.5237 121.341 19.5209C121.332 19.5181 121.324 19.5133 121.317 19.5069C121.311 19.5005 121.306 19.4926 121.303 19.484C121.3 19.4753 121.3 19.4661 121.301 19.4571V19.1403C121.301 19.1272 121.297 19.1195 121.289 19.1173C121.28 19.1151 121.273 19.1206 121.269 19.1337C121.179 19.2742 121.051 19.3864 120.899 19.4571C120.727 19.5339 120.54 19.5714 120.352 19.5669C120.057 19.5768 119.769 19.4753 119.547 19.283C119.439 19.1835 119.355 19.0619 119.299 18.9267C119.244 18.7914 119.219 18.6458 119.227 18.5001V16.325C119.225 16.316 119.226 16.3068 119.229 16.2982C119.232 16.2895 119.236 16.2816 119.243 16.2752C119.249 16.2688 119.257 16.264 119.266 16.2612C119.275 16.2584 119.284 16.2577 119.293 16.2592H119.503C119.512 16.2577 119.521 16.2584 119.53 16.2612C119.539 16.264 119.547 16.2688 119.553 16.2752C119.56 16.2816 119.565 16.2895 119.567 16.2982C119.57 16.3068 119.571 16.316 119.569 16.325V18.4087C119.564 18.5223 119.582 18.6359 119.621 18.7426C119.661 18.8494 119.723 18.9471 119.802 19.0299C119.883 19.1086 119.98 19.1698 120.087 19.2099C120.193 19.2499 120.307 19.2678 120.421 19.2626C120.538 19.2679 120.656 19.2497 120.766 19.2092C120.876 19.1686 120.977 19.1065 121.062 19.0266C121.144 18.9456 121.207 18.8489 121.249 18.7426C121.29 18.6363 121.309 18.5226 121.304 18.4087L121.302 16.325ZM124.03 16.2342C124.161 16.2305 124.291 16.2571 124.41 16.3118C124.427 16.3179 124.44 16.3301 124.447 16.3459C124.455 16.3616 124.455 16.3796 124.449 16.3959L124.39 16.603C124.389 16.6121 124.385 16.6208 124.38 16.6281C124.374 16.6355 124.367 16.6414 124.358 16.6453C124.35 16.6491 124.34 16.6508 124.331 16.6502C124.322 16.6496 124.313 16.6467 124.305 16.6418C124.2 16.6046 124.089 16.5892 123.978 16.5964C123.862 16.596 123.749 16.6203 123.644 16.6678C123.539 16.7152 123.446 16.7846 123.372 16.8712C123.211 17.0529 123.126 17.2876 123.133 17.5285V19.4571C123.134 19.4661 123.134 19.4753 123.131 19.484C123.128 19.4926 123.123 19.5005 123.117 19.5069C123.11 19.5133 123.102 19.5181 123.093 19.5209C123.085 19.5237 123.075 19.5244 123.066 19.5229H122.85C122.841 19.5244 122.832 19.5237 122.823 19.5209C122.814 19.5181 122.806 19.5133 122.8 19.5069C122.793 19.5005 122.788 19.4926 122.785 19.484C122.783 19.4753 122.782 19.4661 122.783 19.4571V16.325C122.782 16.316 122.783 16.3068 122.785 16.2982C122.788 16.2895 122.793 16.2816 122.8 16.2752C122.806 16.2688 122.814 16.264 122.823 16.2612C122.832 16.2584 122.841 16.2577 122.85 16.2592H123.066C123.075 16.2577 123.085 16.2584 123.093 16.2612C123.102 16.264 123.11 16.2688 123.117 16.2752C123.123 16.2816 123.128 16.2895 123.131 16.2982C123.134 16.3068 123.134 16.316 123.133 16.325V16.7654C123.133 16.7781 123.136 16.7855 123.143 16.7877C123.149 16.7899 123.155 16.7844 123.159 16.7713C123.243 16.6122 123.366 16.4766 123.517 16.3769C123.67 16.2801 123.849 16.2306 124.031 16.2349L124.03 16.2342ZM126.349 19.2691C126.534 19.2743 126.717 19.2259 126.876 19.1298C127.024 19.0349 127.143 18.9016 127.22 18.7446C127.241 18.7056 127.27 18.6949 127.305 18.7124L127.475 18.7965C127.515 18.818 127.525 18.846 127.508 18.8807C127.412 19.0913 127.253 19.2677 127.053 19.3855C126.831 19.5144 126.578 19.5793 126.321 19.5728C126.044 19.5814 125.771 19.5044 125.541 19.3526C125.329 19.2081 125.174 18.9953 125.102 18.7505C125.065 18.6327 125.041 18.5112 125.03 18.3883C125.017 18.2569 125.01 18.0886 125.01 17.8835C125.01 17.6723 125.014 17.5128 125.02 17.405C125.026 17.3047 125.04 17.205 125.063 17.1072C125.125 16.8469 125.277 16.6161 125.492 16.4538C125.722 16.285 126.004 16.1984 126.29 16.208C126.601 16.1923 126.906 16.2901 127.148 16.4827C127.369 16.6804 127.511 16.9505 127.547 17.2433C127.561 17.3387 127.57 17.4348 127.573 17.5312C127.577 17.6412 127.58 17.7781 127.58 17.942C127.581 17.951 127.58 17.9601 127.578 17.9688C127.575 17.9775 127.57 17.9853 127.563 17.9917C127.557 17.9982 127.549 18.003 127.54 18.0057C127.531 18.0085 127.522 18.0092 127.513 18.0077H125.376C125.373 18.0073 125.369 18.0077 125.366 18.0088C125.362 18.0099 125.359 18.0118 125.357 18.0143C125.354 18.0168 125.352 18.0198 125.351 18.0231C125.35 18.0264 125.35 18.0299 125.35 18.0334C125.344 18.2174 125.355 18.4016 125.383 18.5836C125.425 18.7847 125.54 18.9635 125.707 19.0851C125.894 19.2139 126.119 19.2787 126.346 19.2698L126.349 19.2691ZM125.399 17.1854C125.369 17.352 125.354 17.5209 125.353 17.6902C125.353 17.6937 125.353 17.6972 125.355 17.7005C125.356 17.7038 125.358 17.7068 125.36 17.7093C125.363 17.7118 125.366 17.7137 125.369 17.7148C125.372 17.7159 125.376 17.7163 125.379 17.7159H127.206C127.21 17.7163 127.213 17.7159 127.217 17.7148C127.22 17.7137 127.223 17.7118 127.226 17.7093C127.228 17.7068 127.23 17.7038 127.231 17.7005C127.232 17.6972 127.233 17.6937 127.232 17.6902C127.236 17.5279 127.225 17.3655 127.2 17.2051C127.157 17.007 127.046 16.8296 126.886 16.7036C126.715 16.5727 126.503 16.505 126.287 16.5123C126.075 16.5048 125.866 16.5701 125.697 16.697C125.541 16.8187 125.434 16.9921 125.396 17.1854H125.399ZM128.432 20.0001C128.423 20.0008 128.413 19.9994 128.405 19.9959C128.396 19.9925 128.389 19.9872 128.383 19.9804C128.377 19.9731 128.373 19.9646 128.371 19.9556C128.37 19.9466 128.37 19.9373 128.373 19.9285L128.681 18.5822C128.683 18.5651 128.691 18.5494 128.704 18.5385C128.718 18.5276 128.735 18.5223 128.753 18.5237H128.936C128.945 18.5231 128.955 18.5245 128.963 18.5279C128.972 18.5313 128.979 18.5366 128.985 18.5435C128.991 18.5508 128.995 18.5592 128.997 18.5683C128.998 18.5773 128.998 18.5866 128.995 18.5954L128.637 19.9403C128.637 19.949 128.635 19.9575 128.631 19.9652C128.627 19.973 128.621 19.9799 128.615 19.9854C128.608 19.9909 128.6 19.9949 128.592 19.9973C128.583 19.9996 128.574 20.0001 128.566 19.9988H128.428L128.432 20.0001ZM132.591 16.208C132.749 16.197 132.909 16.2174 133.059 16.2679C133.21 16.3185 133.349 16.3982 133.468 16.5024C133.571 16.6071 133.65 16.7314 133.702 16.8676C133.754 17.0039 133.777 17.1491 133.77 17.2945V19.4558C133.771 19.4648 133.77 19.474 133.768 19.4826C133.765 19.4913 133.76 19.4992 133.753 19.5056C133.747 19.512 133.739 19.5168 133.73 19.5196C133.721 19.5224 133.712 19.523 133.703 19.5216H133.487C133.478 19.523 133.468 19.5224 133.46 19.5196C133.451 19.5168 133.443 19.512 133.436 19.5056C133.43 19.4992 133.425 19.4913 133.422 19.4826C133.419 19.474 133.419 19.4648 133.42 19.4558V19.1515C133.42 19.1477 133.42 19.144 133.418 19.1407C133.416 19.1373 133.413 19.1345 133.41 19.1324C133.404 19.128 133.396 19.1302 133.388 19.139C133.271 19.2833 133.119 19.3948 132.945 19.4624C132.752 19.5378 132.546 19.5751 132.339 19.5722C132.066 19.5814 131.797 19.503 131.573 19.3487C131.467 19.268 131.383 19.1625 131.328 19.0417C131.273 18.9209 131.25 18.7885 131.259 18.6565C131.254 18.511 131.283 18.3663 131.346 18.2346C131.409 18.1028 131.502 17.9878 131.619 17.8993C131.908 17.699 132.256 17.6008 132.608 17.6206H133.394C133.397 17.621 133.401 17.6206 133.404 17.6195C133.407 17.6183 133.41 17.6165 133.413 17.614C133.415 17.6115 133.417 17.6085 133.418 17.6052C133.42 17.6019 133.42 17.5984 133.42 17.5949V17.3037C133.431 17.0924 133.356 16.8853 133.213 16.7279C133.128 16.6513 133.029 16.5928 132.92 16.556C132.811 16.5193 132.696 16.5051 132.581 16.5143C132.389 16.5067 132.198 16.5539 132.031 16.6503C131.964 16.6899 131.906 16.7423 131.861 16.8046C131.815 16.8668 131.782 16.9376 131.765 17.0125C131.764 17.0216 131.761 17.0305 131.757 17.0384C131.752 17.0464 131.746 17.0534 131.739 17.0589C131.731 17.0644 131.723 17.0683 131.714 17.0704C131.705 17.0725 131.696 17.0727 131.686 17.071L131.458 17.0388C131.41 17.0301 131.39 17.0127 131.398 16.9869C131.418 16.8715 131.462 16.7617 131.528 16.6646C131.595 16.5676 131.681 16.4856 131.782 16.4242C132.024 16.2747 132.305 16.2003 132.591 16.2106V16.208ZM132.401 19.2751C132.655 19.281 132.905 19.2111 133.118 19.0746C133.214 19.0164 133.292 18.9344 133.346 18.8368C133.399 18.7392 133.426 18.6294 133.423 18.5185V17.9269C133.423 17.9234 133.423 17.9199 133.422 17.9166C133.421 17.9133 133.419 17.9103 133.416 17.9078C133.414 17.9053 133.411 17.9035 133.407 17.9023C133.404 17.9012 133.4 17.9008 133.397 17.9012H132.638C132.373 17.8898 132.112 17.9586 131.888 18.0984C131.798 18.1562 131.724 18.236 131.674 18.33C131.624 18.4241 131.6 18.5293 131.603 18.6355C131.597 18.7273 131.615 18.8192 131.654 18.9028C131.693 18.9864 131.752 19.0592 131.826 19.1147C131.993 19.228 132.193 19.2848 132.396 19.2764L132.401 19.2751ZM134.877 19.5209C134.868 19.5224 134.858 19.5217 134.849 19.5189C134.841 19.5161 134.833 19.5113 134.826 19.5049C134.82 19.4985 134.815 19.4906 134.812 19.482C134.809 19.4733 134.809 19.4641 134.81 19.4552V15.0563C134.809 15.0473 134.809 15.0382 134.812 15.0295C134.815 15.0208 134.82 15.013 134.826 15.0066C134.833 15.0001 134.841 14.9953 134.849 14.9926C134.858 14.9898 134.868 14.9891 134.877 14.9906H135.093C135.102 14.9891 135.111 14.9898 135.12 14.9926C135.129 14.9953 135.137 15.0001 135.143 15.0066C135.15 15.013 135.155 15.0208 135.157 15.0295C135.16 15.0382 135.161 15.0473 135.159 15.0563V19.4565C135.161 19.4655 135.16 19.4746 135.157 19.4833C135.155 19.4919 135.15 19.4998 135.143 19.5062C135.137 19.5127 135.129 19.5175 135.12 19.5202C135.111 19.523 135.102 19.5237 135.093 19.5222H134.877V19.5209ZM137.522 19.2685C137.708 19.2737 137.891 19.2252 138.049 19.1291C138.198 19.0343 138.317 18.9011 138.393 18.7439C138.415 18.7049 138.443 18.6942 138.479 18.7117L138.649 18.7959C138.688 18.8173 138.699 18.8454 138.681 18.88C138.586 19.0907 138.427 19.267 138.226 19.3848C138.005 19.5137 137.751 19.5786 137.495 19.5722C137.218 19.5806 136.946 19.5036 136.715 19.352C136.503 19.2076 136.348 18.9947 136.276 18.7499C136.24 18.632 136.215 18.5106 136.205 18.3877C136.191 18.2562 136.185 18.0879 136.185 17.8828C136.185 17.6716 136.188 17.5121 136.195 17.4043C136.2 17.304 136.214 17.2044 136.237 17.1065C136.299 16.848 136.45 16.6184 136.663 16.4564C136.893 16.2877 137.175 16.201 137.461 16.2106C137.772 16.1948 138.077 16.2926 138.32 16.4853C138.541 16.683 138.683 16.9531 138.719 17.2459C138.733 17.3413 138.742 17.4374 138.745 17.5338C138.749 17.6438 138.751 17.7807 138.751 17.9446C138.753 17.9536 138.752 17.9628 138.749 17.9714C138.746 17.9801 138.742 17.9879 138.735 17.9944C138.729 18.0008 138.721 18.0056 138.712 18.0084C138.703 18.0112 138.694 18.0118 138.685 18.0104H136.548C136.545 18.0099 136.541 18.0103 136.538 18.0114C136.535 18.0126 136.532 18.0145 136.529 18.0169C136.527 18.0194 136.525 18.0224 136.524 18.0257C136.522 18.029 136.522 18.0325 136.523 18.036C136.516 18.22 136.527 18.4042 136.555 18.5862C136.596 18.7873 136.712 18.966 136.879 19.0877C137.066 19.2165 137.29 19.2814 137.518 19.2724L137.522 19.2685ZM136.573 17.1847C136.543 17.3513 136.527 17.5203 136.527 17.6896C136.527 17.693 136.527 17.6966 136.528 17.6999C136.529 17.7032 136.531 17.7062 136.534 17.7086C136.536 17.7111 136.539 17.713 136.543 17.7141C136.546 17.7153 136.55 17.7156 136.553 17.7152H138.38C138.384 17.7156 138.387 17.7153 138.39 17.7141C138.394 17.713 138.397 17.7111 138.399 17.7086C138.402 17.7062 138.404 17.7032 138.405 17.6999C138.406 17.6966 138.406 17.693 138.406 17.6896C138.41 17.5272 138.399 17.3648 138.373 17.2045C138.33 17.0063 138.219 16.8289 138.059 16.7029C137.888 16.572 137.676 16.5043 137.46 16.5116C137.248 16.5041 137.039 16.5693 136.87 16.6963C136.714 16.8182 136.607 16.9915 136.569 17.1847H136.573ZM141.007 16.2336C141.138 16.2299 141.268 16.2564 141.387 16.3112C141.403 16.3172 141.416 16.3295 141.424 16.3452C141.431 16.361 141.432 16.379 141.426 16.3953L141.367 16.6024C141.365 16.6115 141.362 16.6201 141.356 16.6275C141.35 16.6349 141.343 16.6407 141.335 16.6446C141.326 16.6485 141.317 16.6502 141.308 16.6495C141.298 16.6489 141.289 16.6461 141.281 16.6411C141.177 16.604 141.065 16.5885 140.954 16.5958C140.839 16.5953 140.725 16.6196 140.62 16.6671C140.516 16.7146 140.423 16.784 140.348 16.8705C140.188 17.0522 140.102 17.2869 140.109 17.5279V19.4565C140.111 19.4655 140.11 19.4746 140.107 19.4833C140.104 19.4919 140.099 19.4998 140.093 19.5062C140.086 19.5127 140.079 19.5175 140.07 19.5202C140.061 19.523 140.052 19.5237 140.043 19.5222H139.823C139.814 19.5237 139.805 19.523 139.796 19.5202C139.787 19.5175 139.779 19.5127 139.773 19.5062C139.766 19.4998 139.761 19.4919 139.759 19.4833C139.756 19.4746 139.755 19.4655 139.757 19.4565V16.325C139.755 16.316 139.756 16.3068 139.759 16.2982C139.761 16.2895 139.766 16.2816 139.773 16.2752C139.779 16.2688 139.787 16.264 139.796 16.2612C139.805 16.2584 139.814 16.2577 139.823 16.2592H140.039C140.048 16.2577 140.058 16.2584 140.066 16.2612C140.075 16.264 140.083 16.2688 140.09 16.2752C140.096 16.2816 140.101 16.2895 140.104 16.2982C140.107 16.3068 140.107 16.316 140.106 16.325V16.7654C140.106 16.7781 140.109 16.7855 140.116 16.7877C140.122 16.7899 140.128 16.7844 140.132 16.7713C140.216 16.6122 140.339 16.4766 140.49 16.3769C140.643 16.2801 140.822 16.2306 141.004 16.2349L141.007 16.2336ZM143.593 16.486C143.595 16.495 143.594 16.5042 143.591 16.5128C143.589 16.5215 143.584 16.5293 143.577 16.5357C143.571 16.5422 143.563 16.547 143.554 16.5498C143.545 16.5525 143.536 16.5532 143.527 16.5517H142.757C142.754 16.5513 142.75 16.5517 142.747 16.5528C142.743 16.554 142.74 16.5558 142.738 16.5583C142.735 16.5608 142.733 16.5638 142.732 16.5671C142.731 16.5704 142.731 16.5739 142.731 16.5774V18.6223C142.722 18.7052 142.731 18.7889 142.757 18.8682C142.783 18.9474 142.826 19.0204 142.882 19.0825C143.022 19.1827 143.195 19.2294 143.367 19.2139H143.517C143.527 19.2125 143.536 19.2131 143.545 19.2159C143.553 19.2187 143.561 19.2235 143.568 19.2299C143.574 19.2363 143.579 19.2442 143.582 19.2529C143.585 19.2615 143.586 19.2707 143.584 19.2797V19.4545C143.586 19.4635 143.585 19.4727 143.582 19.4813C143.579 19.49 143.574 19.4978 143.568 19.5043C143.561 19.5107 143.553 19.5155 143.545 19.5183C143.536 19.521 143.527 19.5217 143.517 19.5203L143.318 19.5268C143.074 19.5438 142.832 19.4824 142.627 19.352C142.54 19.2702 142.473 19.1699 142.432 19.0589C142.391 18.9478 142.376 18.8288 142.388 18.7111V16.5767C142.388 16.5732 142.388 16.5697 142.387 16.5664C142.386 16.5631 142.384 16.5601 142.381 16.5576C142.379 16.5552 142.376 16.5533 142.372 16.5522C142.369 16.551 142.365 16.5507 142.362 16.5511H141.969C141.96 16.5526 141.95 16.5519 141.942 16.5491C141.933 16.5463 141.925 16.5415 141.918 16.5351C141.912 16.5287 141.907 16.5208 141.904 16.5122C141.901 16.5035 141.901 16.4943 141.902 16.4853V16.325C141.901 16.316 141.901 16.3068 141.904 16.2982C141.907 16.2895 141.912 16.2816 141.918 16.2752C141.925 16.2688 141.933 16.264 141.942 16.2612C141.95 16.2584 141.96 16.2577 141.969 16.2592H142.362C142.365 16.2596 142.369 16.2593 142.372 16.2581C142.376 16.257 142.379 16.2551 142.381 16.2527C142.384 16.2502 142.386 16.2472 142.387 16.2439C142.388 16.2406 142.388 16.2371 142.388 16.2336V15.4961C142.386 15.4871 142.387 15.4779 142.39 15.4693C142.393 15.4606 142.397 15.4527 142.404 15.4463C142.41 15.4399 142.418 15.4351 142.427 15.4323C142.436 15.4295 142.445 15.4288 142.454 15.4303H142.664C142.673 15.4288 142.682 15.4295 142.691 15.4323C142.7 15.4351 142.708 15.4399 142.714 15.4463C142.721 15.4527 142.726 15.4606 142.728 15.4693C142.731 15.4779 142.732 15.4871 142.73 15.4961V16.2336C142.73 16.2371 142.73 16.2406 142.732 16.2439C142.733 16.2472 142.735 16.2502 142.737 16.2527C142.74 16.2551 142.743 16.257 142.746 16.2581C142.749 16.2593 142.753 16.2596 142.756 16.2592H143.523C143.532 16.2577 143.541 16.2584 143.55 16.2612C143.559 16.264 143.567 16.2688 143.573 16.2752C143.58 16.2816 143.585 16.2895 143.587 16.2982C143.59 16.3068 143.591 16.316 143.589 16.325L143.593 16.486Z" fill="white"/>
<path d="M12.4783 1.02277H6.80197V12.3289H5.67562V1.02277H0.00195312V-0.000691995H12.4783V1.02277ZM28.379 12.3289H27.2453V6.35243H16.0683V12.3289H14.9299V-3.50231e-05H16.0656V5.31253H27.2426V-3.50231e-05H28.3783L28.379 12.3289ZM43.1187 12.3289H32.5856V-3.50231e-05H42.9843V1.0517H33.8204V5.29609H42.5212V6.33731H33.8204V11.2818H43.1206L43.1187 12.3289ZM52.8367 7.05314H47.7618V12.3289H46.6261V-3.50231e-05H52.8387C53.6584 -0.0122832 54.4771 0.0615337 55.281 0.220172C55.8737 0.332758 56.4387 0.558253 56.9442 0.884078C57.3591 1.15877 57.688 1.54266 57.8936 1.99234C58.1033 2.4832 58.2055 3.01231 58.1937 3.54496C58.2346 4.34693 57.9724 5.13531 57.4578 5.75688C56.818 6.38498 55.9842 6.78404 55.0887 6.89078L59.3466 12.3289H57.9242L53.9012 7.01633C53.7317 7.0286 53.559 7.03759 53.3829 7.04328C53.2068 7.04898 53.0254 7.05205 52.8387 7.05249L52.8367 7.05314ZM57.0227 3.5443C57.042 3.10129 56.945 2.66089 56.7413 2.26579C56.5295 1.91904 56.2067 1.65207 55.8239 1.50723C55.2914 1.30319 54.7305 1.18061 54.1606 1.14372C53.4736 1.08106 52.6309 1.04973 51.6325 1.04973H47.7618V6.00273H51.5946C52.5934 6.00273 53.4379 5.97446 54.128 5.91793C54.7027 5.88584 55.2691 5.76771 55.8079 5.56757C56.1931 5.42779 56.5206 5.16591 56.7393 4.82281C56.9473 4.42911 57.0458 3.98792 57.0247 3.5443H57.0227ZM79.106 12.3289H77.989V1.83918L71.1291 12.3289H70.1245L63.2553 1.79448V12.3289H62.1196V-3.50231e-05H63.3384L70.6567 11.1746L77.8952 -3.50231e-05H79.106V12.3289ZM95.98 12.3289H94.7359L93.0194 9.08101H84.5435L82.827 12.3289H81.5829L88.1128 -3.50231e-05H89.4481L95.98 12.3289ZM92.4626 8.05097L88.7848 1.08325L85.0977 8.05097H92.4626Z" fill="white"/>
<path d="M109.254 12.5533H99V0.224327H100.135V11.5035H109.254V12.5533ZM127.017 6.39799C127.043 7.38731 126.834 8.36887 126.408 9.26462C126.019 10.0502 125.446 10.7331 124.736 11.257C123.985 11.8007 123.134 12.1954 122.23 12.4192C121.213 12.677 120.165 12.8036 119.115 12.7958C118.058 12.8036 117.005 12.677 115.982 12.4192C115.071 12.1958 114.213 11.8013 113.454 11.257C112.741 10.735 112.165 10.0518 111.774 9.26462C111.348 8.36877 111.14 7.38724 111.166 6.39799C111.157 5.71913 111.252 5.04289 111.447 4.39181C111.622 3.81568 111.889 3.27059 112.237 2.77675C112.576 2.30145 112.991 1.88459 113.468 1.54294C113.964 1.18797 114.504 0.897054 115.075 0.677228C115.689 0.440449 116.327 0.269013 116.978 0.165824C117.683 0.0531735 118.397 -0.00222799 119.111 0.000175419C120.162 -0.00762305 121.209 0.118979 122.227 0.376827C123.132 0.599975 123.984 0.994434 124.736 1.53833C125.445 2.06229 126.018 2.74517 126.408 3.53071C126.834 4.42656 127.043 5.40835 127.018 6.39799H127.017ZM125.845 6.39799C125.861 5.60521 125.714 4.81753 125.414 4.08221C125.135 3.42371 124.697 2.84293 124.138 2.39089C123.517 1.9043 122.801 1.54981 122.035 1.34968C121.083 1.09923 120.101 0.980003 119.115 0.995377C118.127 0.980393 117.142 1.10118 116.188 1.35428C115.417 1.55692 114.695 1.91251 114.067 2.39944C113.503 2.85126 113.06 3.43381 112.778 4.09536C112.476 4.82508 112.327 5.60783 112.341 6.39602C112.326 7.18903 112.474 7.9768 112.778 8.71115C113.06 9.37095 113.503 9.95182 114.067 10.4025C114.695 10.8891 115.416 11.2435 116.188 11.4437C117.143 11.6936 118.128 11.8128 119.115 11.798C120.101 11.8134 121.083 11.6941 122.035 11.4437C122.801 11.2436 123.517 10.8891 124.138 10.4025C124.696 9.95161 125.135 9.37223 125.414 8.71509C125.715 7.97937 125.862 7.19122 125.846 6.39799H125.845ZM137.688 0.000175419C138.225 -0.00193045 138.761 0.0263811 139.295 0.0849711C139.775 0.139063 140.251 0.220046 140.721 0.327528C141.169 0.430308 141.612 0.556028 142.047 0.704179C142.477 0.850545 142.91 1.01356 143.346 1.19323V2.5572C142.988 2.3353 142.62 2.13169 142.242 1.94719C141.834 1.74881 141.411 1.58073 140.978 1.44434C140.503 1.29523 140.017 1.1812 139.525 1.10318C138.975 1.01714 138.418 0.975149 137.861 0.97763C136.793 0.960117 135.726 1.08684 134.692 1.35428C133.877 1.56317 133.111 1.92907 132.439 2.43099C131.853 2.88004 131.39 3.466 131.09 4.13611C130.782 4.85042 130.629 5.62083 130.641 6.39734C130.633 7.14287 130.783 7.88184 131.081 8.56653C131.38 9.23438 131.838 9.82077 132.417 10.2756C133.082 10.7894 133.843 11.1703 134.655 11.397C135.68 11.6833 136.742 11.8192 137.807 11.8006C138.279 11.8006 138.747 11.7826 139.21 11.7467C139.674 11.7108 140.111 11.6643 140.523 11.6074C140.934 11.5508 141.309 11.4879 141.648 11.4187C141.987 11.3495 142.275 11.2791 142.513 11.2077V7.46616H137.434V6.41443H143.646V11.8341C143.198 11.9897 142.746 12.1273 142.288 12.2469C141.831 12.3666 141.359 12.4667 140.872 12.5473C140.384 12.6284 139.878 12.6898 139.355 12.7314C138.832 12.773 138.282 12.7949 137.706 12.7971C136.604 12.806 135.506 12.675 134.437 12.4073C133.499 12.1781 132.614 11.7768 131.826 11.2241C131.098 10.703 130.505 10.0186 130.096 9.22715C129.661 8.34835 129.446 7.37885 129.469 6.40062C129.461 5.73017 129.56 5.06261 129.76 4.42205C129.944 3.84619 130.222 3.30379 130.582 2.81619C130.94 2.33723 131.372 1.91762 131.863 1.57317C132.377 1.21242 132.936 0.918386 133.526 0.698263C134.163 0.460639 134.821 0.286455 135.492 0.178312C136.218 0.0587048 136.953 -0.000880668 137.689 0.000175419H137.688Z" fill="#FB3640"/>
</g>
<defs>
<clipPath id="clip0_1606_18630">
<rect width="144" height="20" fill="white"/>
</clipPath>
</defs>
</svg>
