<svg width="22" height="22" viewBox="0 0 22 22" fill="none" xmlns="http://www.w3.org/2000/svg">
<path d="M3.3858 12.0562L6.72069 6.53215L3.41817 4.58331L0 9.76074L3.3858 12.0562Z" fill="white"/>
<path d="M8.03116 13.3326C7.77629 13.3267 7.6609 13.4659 7.49455 13.6407L6.74064 14.4316C6.58497 14.5945 6.47497 14.7129 6.46699 14.9706C6.45889 15.3231 6.70578 15.6103 7.0224 15.6192C7.37389 15.6282 8.29145 14.627 8.48455 14.3278C8.54888 14.2242 8.58387 14.1027 8.58645 13.9813C8.59455 13.6317 8.34766 13.3415 8.03104 13.3326L8.03116 13.3326Z" fill="white"/>
<path d="M6.61484 12.6249L5.86364 13.4098C5.62485 13.6586 5.77512 14.1177 6.1131 14.1266C6.20972 14.1296 6.30891 14.0941 6.38405 14.0141L7.13255 13.2293L7.13795 13.2233C7.48675 12.8472 6.9743 12.2458 6.61482 12.6251L6.61484 12.6249Z" fill="white"/>
<path d="M9.50149 16.0161C9.36461 16.1198 8.79853 16.7418 8.77446 16.8218C8.71271 17.0142 8.83621 17.2245 9.02662 17.2305C9.09636 17.2305 9.16879 17.2038 9.22514 17.1476L9.85566 16.4841C10.1051 16.2235 9.77512 15.797 9.50146 16.0161L9.50149 16.0161Z" fill="white"/>
<path d="M8.53216 15.0889C8.32026 15.3111 8.11095 15.5392 7.89636 15.7553C7.82932 15.8323 7.79176 15.933 7.79176 16.0337C7.78636 16.2648 7.94743 16.4573 8.15661 16.4632C8.33635 16.4662 8.41958 16.3566 8.53228 16.2381L9.06889 15.6754C9.18159 15.5599 9.28889 15.468 9.29429 15.2726C9.29969 15.0415 9.13862 14.849 8.92674 14.8431C8.7389 14.8401 8.65309 14.9615 8.5324 15.0889H8.53216Z" fill="white"/>
<path d="M15.1274 7.32007C14.7732 7.55996 14.0569 8.0132 13.7028 7.96574C13.3433 7.92128 12.9677 7.79388 12.5813 7.66065C11.4947 7.28738 10.2928 6.87578 9.41016 8.5789C9.65164 9.22158 10.5987 8.97576 11.2908 8.79805C11.7308 8.68258 12.093 8.58771 12.305 8.72405C13.279 9.3402 14.0704 10.279 14.9557 11.0344C15.8599 11.8045 16.7452 12.2547 17.6494 11.4994L15.1274 7.32007Z" fill="white"/>
<path d="M10.3444 16.724L10.9829 17.2928C11.2216 17.5031 11.4685 17.4202 11.5919 17.2335C11.8602 16.8188 11.3425 16.4309 11.0902 16.191L10.6207 15.7407L10.9614 15.3054L11.9996 16.2977C12.5577 16.8308 13.3894 15.9333 12.7239 15.2907L11.3234 13.9044L11.6722 13.4779L12.8179 14.6093C13.156 14.9469 13.4806 15.3794 14.0627 14.8759C14.2988 14.5856 14.2773 14.1265 14.0118 13.8629L14.0252 13.8482L12.182 12.1718L12.512 11.7275L14.3766 13.4216C15.1278 14.1028 16.0642 12.8826 15.3451 12.1955C14.4061 11.295 13.0245 9.8437 12.048 9.22471C12.0131 9.20398 11.7395 9.27215 11.4095 9.35794C10.5214 9.58903 9.30878 9.90292 8.92771 8.80401C8.84717 8.57292 8.86866 8.46639 8.97866 8.25903C9.17987 7.87397 9.39179 7.57485 9.61446 7.34974L6.96905 7.1543L4.25391 11.6534C4.50607 12.0415 5.33781 12.7731 5.79661 12.6841C6.11592 12.3495 6.41094 11.923 6.89391 11.9348C7.33661 11.9495 7.70146 12.308 7.76052 12.7908C7.85444 12.7671 7.94835 12.7553 8.04485 12.7583C8.6485 12.776 9.12335 13.327 9.10729 13.9934C9.10459 14.0911 9.09391 14.1888 9.06972 14.2837C9.50972 14.3667 9.82363 14.7902 9.81285 15.2849C9.81285 15.3234 9.81015 15.3619 9.80475 15.3974C10.1938 15.4744 10.4729 15.8506 10.462 16.2859C10.4593 16.437 10.4191 16.591 10.3439 16.7242L10.3444 16.724Z" fill="white"/>
<path d="M15.2789 6.53208L18.6138 12.0561L21.9996 9.76074L18.5814 4.58331L15.2789 6.53208Z" fill="white"/>
</svg>
