<svg width="15" height="20" viewBox="0 0 15 20" fill="none" xmlns="http://www.w3.org/2000/svg">
<path fill-rule="evenodd" clip-rule="evenodd" d="M13.0416 2.9057C14.0395 2.9057 14.5362 3.64524 14.5362 4.53335V17.8563C14.5362 18.7083 13.9583 19.1666 13.0416 19.1666H2.04163C1.12496 19.1666 0.666626 18.7083 0.666626 17.7916V4.53335C0.666626 3.58331 1.02957 2.9057 2.04163 2.9057H3.94105V3.75713C3.94105 4.18532 4.28907 4.53335 4.71727 4.53335H10.4853C10.9135 4.53335 11.2616 4.18533 11.2616 3.75713V2.9057H13.0416ZM4.71756 1.8695C4.61572 1.8695 4.53265 1.95258 4.53265 2.05441V3.75739C4.53265 3.85922 4.61572 3.9423 4.71756 3.9423H10.4856C10.5875 3.9423 10.6705 3.85922 10.6705 3.75739L10.6704 2.05427C10.6704 1.95243 10.5873 1.86936 10.4855 1.86936H8.9187C8.77519 1.27489 8.24005 0.833313 7.60142 0.833313C6.96279 0.833313 6.42763 1.27489 6.28428 1.86964L4.71756 1.8695ZM2.87038 13.1174C2.76854 13.1174 2.68547 13.2005 2.68547 13.3023V15.4852C2.68547 15.587 2.76854 15.6701 2.87038 15.6701H3.83122C3.93306 15.6701 4.01613 15.587 4.01613 15.4852L4.016 13.3023C4.016 13.2005 3.93292 13.1174 3.83108 13.1174H2.87038ZM11.8521 6.17189C11.4995 6.17189 11.2137 6.45767 11.2137 6.81023C11.2137 6.86653 11.2209 6.9209 11.2347 6.97279L9.2385 8.78863C9.16991 8.76351 9.09567 8.74971 9.01826 8.74971C8.86536 8.74971 8.72502 8.80353 8.61519 8.89309L6.82114 8.12156C6.79658 7.79148 6.52087 7.53094 6.18456 7.53094C5.83199 7.53094 5.54622 7.81672 5.54622 8.16929C5.54622 8.20613 5.54925 8.24229 5.55546 8.27747L3.62411 9.74394C3.54131 9.70461 3.44858 9.68253 3.35088 9.68253C2.99831 9.68253 2.71253 9.96831 2.71253 10.3209C2.71253 10.6734 2.99832 10.9592 3.35088 10.9592C3.70344 10.9592 3.98922 10.6734 3.98922 10.3209C3.98922 10.284 3.98619 10.2479 3.97998 10.2127L5.91134 8.74623C5.99413 8.78556 6.08686 8.80763 6.18456 8.80763C6.33746 8.80763 6.4778 8.75382 6.58764 8.66426L8.38168 9.43578C8.40624 9.76587 8.68168 10.0264 9.01826 10.0264C9.37083 10.0264 9.6566 9.74062 9.6566 9.38806C9.6566 9.33175 9.64943 9.27739 9.63563 9.2255L11.6318 7.40966C11.7004 7.43478 11.7747 7.44858 11.8521 7.44858C12.2047 7.44858 12.4904 7.16279 12.4904 6.81023C12.4904 6.45779 12.2046 6.17189 11.8521 6.17189ZM11.3717 9.12756C11.2699 9.12756 11.1868 9.21064 11.1868 9.31247V15.4854C11.1868 15.5872 11.2699 15.6703 11.3717 15.6703H12.3326C12.4344 15.6703 12.5175 15.5872 12.5175 15.4854V9.31247C12.5175 9.21064 12.4344 9.12756 12.3326 9.12756H11.3717ZM8.53788 11.7804C8.43604 11.7804 8.35297 11.8634 8.35297 11.9653V15.4853C8.35297 15.5872 8.43604 15.6703 8.53788 15.6703H9.49872C9.60056 15.6703 9.68363 15.5872 9.68363 15.4853V11.9653C9.68363 11.8634 9.60056 11.7804 9.49872 11.7804H8.53788ZM5.70418 10.8728C5.60235 10.8728 5.51927 10.9559 5.51927 11.0577V15.4855C5.51927 15.5873 5.60235 15.6704 5.70418 15.6704H6.66502C6.76686 15.6704 6.84993 15.5873 6.84993 15.4855V11.0577C6.84993 10.9559 6.76686 10.8728 6.66502 10.8728H5.70418Z" fill="white"/>
</svg>
