<svg width="18" height="20" viewBox="0 0 18 20" fill="none" xmlns="http://www.w3.org/2000/svg">
<path fill-rule="evenodd" clip-rule="evenodd" d="M16.7021 11.4484C17.03 11.6226 17.2829 11.8976 17.4609 12.1726C17.8075 12.7409 17.7794 13.4376 17.4422 14.0518L16.7864 15.1518C16.4398 15.7384 15.7934 16.1051 15.1283 16.1051C14.8004 16.1051 14.4351 16.0134 14.1353 15.8301C13.8917 15.6743 13.6107 15.6193 13.3109 15.6193C12.3835 15.6193 11.6059 16.3801 11.5778 17.2876C11.5778 18.3418 10.716 19.1668 9.63868 19.1668H8.36464C7.27796 19.1668 6.41611 18.3418 6.41611 17.2876C6.39737 16.3801 5.61983 15.6193 4.69241 15.6193C4.38326 15.6193 4.10223 15.6743 3.86803 15.8301C3.56825 16.0134 3.19354 16.1051 2.87503 16.1051C2.20053 16.1051 1.55415 15.7384 1.20753 15.1518L0.561144 14.0518C0.21453 13.4559 0.195794 12.7409 0.542408 12.1726C0.692295 11.8976 0.973334 11.6226 1.29184 11.4484C1.55415 11.3201 1.72277 11.1093 1.88202 10.8618C2.35042 10.0734 2.06938 9.0376 1.27311 8.5701C0.345681 8.0476 0.0459073 6.88343 0.57988 5.97593L1.20753 4.89427C1.75087 3.98677 2.9125 3.66594 3.84929 4.1976C4.6643 4.6376 5.72288 4.34427 6.20065 3.5651C6.35053 3.30843 6.43484 3.03343 6.41611 2.75843C6.39737 2.40093 6.50042 2.06177 6.67841 1.78677C7.02502 1.21843 7.65268 0.851768 8.33654 0.833435H9.65742C10.3506 0.833435 10.9783 1.21843 11.3249 1.78677C11.4935 2.06177 11.6059 2.40093 11.5778 2.75843C11.5591 3.03343 11.6434 3.30843 11.7933 3.5651C12.2711 4.34427 13.3296 4.6376 14.154 4.1976C15.0815 3.66594 16.2524 3.98677 16.7864 4.89427L17.4141 5.97593C17.9574 6.88343 17.6576 8.0476 16.7208 8.5701C15.9246 9.0376 15.6435 10.0734 16.1213 10.8618C16.2712 11.1093 16.4398 11.3201 16.7021 11.4484ZM6.35053 10.0093C6.35053 11.4484 7.54026 12.5943 9.01103 12.5943C10.4818 12.5943 11.6434 11.4484 11.6434 10.0093C11.6434 8.5701 10.4818 7.4151 9.01103 7.4151C7.54026 7.4151 6.35053 8.5701 6.35053 10.0093Z" fill="white"/>
</svg>
