<svg width="22" height="22" viewBox="0 0 22 22" fill="none" xmlns="http://www.w3.org/2000/svg">
<path d="M11.5927 1.61207C12.3636 1.61207 13.0955 1.78934 13.7586 2.10275C13.2119 1.37007 12.3715 0.916672 11.4678 0.916672H10.1211C9.21749 0.916672 8.37703 1.37007 7.83032 2.10275C8.49379 1.78935 9.22563 1.61207 9.99627 1.61207H11.5927Z" fill="white"/>
<path d="M10.7915 15.5204C12.047 15.5204 13.0684 14.4283 13.0684 13.0865V9.95724H8.51465V13.0865C8.51465 14.4283 9.53606 15.5204 10.7915 15.5204ZM10.7915 11.6957C11.51 11.6957 12.0926 12.3185 12.0926 13.0865C12.0926 13.8546 11.51 14.4773 10.7915 14.4773C10.073 14.4773 9.49045 13.8546 9.49045 13.0865C9.49045 12.3185 10.073 11.6957 10.7915 11.6957Z" fill="white"/>
<path d="M14.3722 6.82661C14.3722 5.10099 13.0588 3.69731 11.4448 3.69731H10.1437C8.52972 3.69731 7.21631 5.10099 7.21631 6.82661C7.21631 7.77021 7.62551 8.66974 8.31047 9.26051H13.278C13.9631 8.66974 14.3723 7.77021 14.3723 6.82661H14.3722ZM12.7459 7.17431C12.7459 7.36617 12.6001 7.52201 12.4206 7.52201H9.16792C8.98844 7.52201 8.84265 7.36617 8.84265 7.17431V5.78351C8.84265 5.59166 8.98844 5.43581 9.16792 5.43581H12.4206C12.6001 5.43581 12.7459 5.59166 12.7459 5.78351V7.17431Z" fill="white"/>
<path d="M13.716 13.0861C13.716 14.8117 12.4025 16.2154 10.7885 16.2154C9.17454 16.2154 7.86113 14.8117 7.86113 13.0861V11.3476H6.56006V17.9539C6.56006 19.6795 7.87347 21.0832 9.48747 21.0832H12.0896C13.7036 21.0832 15.017 19.6795 15.017 17.9539V11.3476H13.716V13.0861ZM8.1864 18.6493C7.827 18.6493 7.53586 18.338 7.53586 17.9539C7.53586 17.5697 7.827 17.2585 8.1864 17.2585C8.54579 17.2585 8.83693 17.5697 8.83693 17.9539C8.83693 18.338 8.54579 18.6493 8.1864 18.6493ZM10.7885 18.6493C10.4291 18.6493 10.138 18.338 10.138 17.9539C10.138 17.5697 10.4291 17.2585 10.7885 17.2585C11.1479 17.2585 11.4391 17.5697 11.4391 17.9539C11.4391 18.338 11.1479 18.6493 10.7885 18.6493ZM14.0412 17.9539C14.0412 18.338 13.7501 18.6493 13.3907 18.6493C13.0313 18.6493 12.7401 18.338 12.7401 17.9539C12.7401 17.5697 13.0313 17.2585 13.3907 17.2585C13.7501 17.2585 14.0412 17.5697 14.0412 17.9539Z" fill="white"/>
<path d="M11.5931 2.30746H9.99695C7.3877 2.30746 5.26514 4.57622 5.26514 7.36561C5.26514 8.5096 5.63338 9.63186 6.30179 10.5252L6.39734 10.6525H7.86729V9.76971C7.05222 9.0476 6.56622 7.96413 6.56622 6.82777C6.56622 4.71892 8.17137 3.00307 10.1442 3.00307H11.4452C13.418 3.00307 15.0232 4.71892 15.0232 6.82777C15.0232 7.96401 14.5372 9.04745 13.7221 9.76971V10.6525H15.1921L15.2873 10.5252C15.956 9.63158 16.3243 8.5096 16.3243 7.36561C16.3243 4.57642 14.2019 2.30746 11.5928 2.30746H11.5931Z" fill="white"/>
<path d="M0.710083 9.95724H1.36062V16.9112H0.710083V9.95724Z" fill="white"/>
<path d="M2.65417 11.3476H3.30471V15.52H2.65417V11.3476Z" fill="white"/>
<path d="M4.61243 12.7384H5.26296V14.1292H4.61243V12.7384Z" fill="white"/>
<path d="M20.2286 9.95724H20.8792V16.9112H20.2286V9.95724Z" fill="white"/>
<path d="M18.2739 11.3476H18.9245V15.52H18.2739V11.3476Z" fill="white"/>
<path d="M16.3228 12.7384H16.9733V14.1292H16.3228V12.7384Z" fill="white"/>
</svg>
